<svg xmlns="http://www.w3.org/2000/svg" width="419.25" viewBox="0 0 419.25 297.75" height="297.75" version="1.0"><defs><clipPath id="a"><path d="M 30.957031 75.800781 L 147.886719 75.800781 L 147.886719 221.964844 L 30.957031 221.964844 Z M 30.957031 75.800781"/></clipPath></defs><g clip-path="url(#a)"><path fill="#08143D" d="M 35.832031 104.777344 C 37.601562 106.585938 39.769531 107.976562 42.1875 108.859375 C 42.1875 108.859375 42.1875 108.859375 42.195312 108.859375 C 44.011719 109.527344 45.964844 109.90625 48.011719 109.90625 L 140.574219 109.90625 C 141.917969 109.90625 143.011719 111 143.011719 112.34375 L 143.011719 214.65625 C 143.011719 215.996094 141.917969 217.089844 140.574219 217.089844 L 48.011719 217.089844 C 41.292969 217.089844 35.832031 211.628906 35.832031 204.910156 Z M 48.011719 105.035156 C 47.171875 105.035156 46.363281 104.949219 45.574219 104.785156 L 45.574219 92.855469 C 45.574219 91.511719 46.667969 90.417969 48.011719 90.417969 L 123.523438 90.417969 L 123.523438 105.035156 Z M 39.40625 84.242188 C 41.691406 81.941406 44.746094 80.675781 48.011719 80.675781 L 130.832031 80.675781 C 132.171875 80.675781 133.269531 81.769531 133.269531 83.109375 L 133.269531 105.035156 L 128.394531 105.035156 L 128.394531 90.417969 C 128.394531 87.734375 126.207031 85.546875 123.523438 85.546875 L 48.011719 85.546875 C 43.976562 85.546875 40.703125 88.820312 40.703125 92.855469 L 40.703125 102.53125 C 37.761719 100.304688 35.832031 96.820312 35.832031 92.855469 C 35.832031 89.589844 37.097656 86.535156 39.40625 84.242188 Z M 48.011719 221.964844 L 140.574219 221.964844 C 144.609375 221.964844 147.882812 218.691406 147.882812 214.65625 L 147.882812 112.34375 C 147.882812 108.308594 144.609375 105.035156 140.574219 105.035156 L 138.140625 105.035156 L 138.140625 83.109375 C 138.140625 79.074219 134.867188 75.800781 130.832031 75.800781 L 48.011719 75.800781 C 43.433594 75.800781 39.152344 77.582031 35.964844 80.796875 C 32.738281 83.996094 30.957031 88.277344 30.957031 92.855469 L 30.957031 204.910156 C 30.957031 214.3125 38.609375 221.964844 48.011719 221.964844"/></g><path fill="#08143D" d="M 55.890625 138.140625 C 56.574219 137.664062 56.945312 136.636719 56.917969 135.808594 C 56.917969 131.953125 60.046875 128.8125 63.890625 128.8125 C 64.109375 128.8125 64.339844 128.832031 64.558594 128.851562 C 65.59375 128.957031 66.546875 128.386719 66.984375 127.460938 C 68.136719 125.015625 70.609375 123.429688 73.292969 123.429688 C 74.578125 123.429688 75.832031 123.800781 76.945312 124.476562 C 77.859375 125.046875 79.039062 124.941406 79.847656 124.21875 C 82.808594 121.554688 87.488281 121.4375 90.582031 123.921875 C 91.265625 124.464844 92.191406 124.609375 93 124.292969 C 97.453125 122.542969 102.550781 123.582031 105.96875 126.835938 C 106.394531 127.234375 106.949219 127.472656 107.527344 127.5 C 114.09375 127.84375 119.242188 133.257812 119.242188 139.84375 C 119.242188 140.328125 119.203125 140.804688 119.148438 141.269531 C 119.015625 142.460938 119.757812 143.574219 120.898438 143.898438 C 123.875 144.753906 125.960938 147.511719 125.960938 150.613281 C 125.960938 154.46875 122.828125 157.597656 118.984375 157.597656 C 116.976562 157.597656 115.066406 156.722656 113.734375 155.191406 C 113.199219 154.574219 112.371094 154.277344 111.574219 154.382812 C 110.753906 154.488281 110.050781 155 109.699219 155.742188 C 107.207031 160.957031 101.886719 164.335938 96.140625 164.335938 C 93.644531 164.335938 91.179688 163.707031 89.003906 162.527344 C 87.832031 161.902344 86.375 162.320312 85.71875 163.460938 C 84.007812 166.488281 80.78125 168.371094 77.328125 168.371094 C 73.40625 168.371094 69.90625 165.953125 68.429688 162.421875 C 67.867188 161.089844 67.613281 159.605469 67.6875 158 C 67.925781 153.058594 72.304688 148.882812 77.242188 148.882812 L 84.671875 148.882812 C 87.5 148.882812 89.402344 146.980469 89.402344 144.132812 L 89.410156 141.574219 L 91.855469 141.574219 C 93.199219 141.574219 94.292969 140.480469 94.292969 139.140625 C 94.292969 137.796875 93.199219 136.703125 91.855469 136.703125 L 89.257812 136.703125 C 86.433594 136.703125 84.53125 138.605469 84.53125 141.449219 L 84.511719 144.011719 L 77.242188 144.011719 C 69.65625 144.011719 63.1875 150.1875 62.824219 157.769531 C 62.804688 158.132812 62.824219 158.484375 62.824219 158.847656 C 58 158.304688 54.222656 154.230469 54.234375 149.121094 C 54.234375 149.101562 54.253906 148.882812 54.253906 148.863281 C 54.269531 148.378906 54.148438 147.902344 53.898438 147.492188 C 53.234375 146.398438 52.882812 145.152344 52.882812 143.886719 C 52.882812 141.59375 54.003906 139.453125 55.890625 138.140625 Z M 108.910156 173.242188 C 108.214844 173.242188 107.566406 173.175781 106.96875 173.054688 C 104.332031 172.511719 102.058594 170.875 100.660156 168.65625 C 105.453125 167.523438 109.71875 164.632812 112.523438 160.550781 C 114.324219 161.71875 116.40625 162.367188 118.574219 162.441406 C 118.613281 162.792969 118.652344 163.148438 118.652344 163.5 C 118.652344 168.875 114.285156 173.242188 108.910156 173.242188 Z M 103.988281 185.367188 L 95.101562 175.601562 C 93.710938 174.097656 91.753906 173.242188 89.714844 173.242188 L 87.8125 173.242188 C 86.40625 173.242188 85.234375 172.339844 84.777344 171.160156 C 86.261719 170.265625 87.585938 169.121094 88.6875 167.753906 C 90.828125 168.617188 93.121094 169.085938 95.445312 169.171875 C 97.035156 172.976562 100.136719 175.90625 104.027344 177.277344 Z M 63.730469 163.824219 C 63.757812 163.878906 63.785156 163.9375 63.816406 164.003906 C 63.871094 164.15625 63.917969 164.316406 63.988281 164.46875 C 64.035156 164.582031 64.109375 164.667969 64.175781 164.773438 C 66.515625 169.816406 71.617188 173.242188 77.328125 173.242188 C 78.324219 173.242188 79.296875 173.128906 80.257812 172.917969 C 81.445312 175.964844 84.378906 178.117188 87.8125 178.117188 L 89.714844 178.117188 C 90.402344 178.117188 91.058594 178.410156 91.515625 178.90625 L 100.324219 188.582031 C 101.269531 189.707031 102.617188 190.304688 104.007812 190.304688 C 104.570312 190.304688 105.148438 190.210938 105.703125 190.011719 C 107.652344 189.296875 108.910156 187.496094 108.910156 185.421875 L 108.910156 178.117188 C 116.96875 178.117188 123.523438 171.558594 123.523438 163.5 C 123.523438 162.871094 123.46875 162.234375 123.382812 161.605469 C 127.738281 159.855469 130.832031 155.601562 130.832031 150.613281 C 130.832031 146.027344 128.148438 141.878906 124.113281 139.929688 C 124.113281 139.898438 124.113281 139.871094 124.113281 139.84375 C 124.113281 130.964844 117.394531 123.597656 108.671875 122.703125 C 104.265625 118.925781 98.089844 117.605469 92.503906 119.308594 C 88.144531 116.519531 82.199219 116.605469 77.953125 119.527344 C 76.488281 118.890625 74.902344 118.554688 73.292969 118.554688 C 69.277344 118.554688 65.539062 120.628906 63.378906 123.960938 C 57.363281 124.207031 52.5 128.976562 52.074219 134.953125 C 49.503906 137.1875 48.011719 140.441406 48.011719 143.886719 C 48.011719 145.78125 48.476562 147.65625 49.351562 149.347656 C 49.398438 157.285156 55.820312 163.738281 63.730469 163.824219"/><path fill="#08143D" d="M 101.601562 95.289062 L 55.316406 95.289062 C 53.976562 95.289062 52.882812 96.382812 52.882812 97.726562 C 52.882812 99.066406 53.976562 100.164062 55.316406 100.164062 L 101.601562 100.164062 C 102.941406 100.164062 104.035156 99.066406 104.035156 97.726562 C 104.035156 96.382812 102.941406 95.289062 101.601562 95.289062"/><path fill="#08143D" d="M 113.78125 95.289062 L 111.34375 95.289062 C 110.003906 95.289062 108.910156 96.382812 108.910156 97.726562 C 108.910156 99.066406 110.003906 100.164062 111.34375 100.164062 L 113.78125 100.164062 C 115.121094 100.164062 116.214844 99.066406 116.214844 97.726562 C 116.214844 96.382812 115.121094 95.289062 113.78125 95.289062"/><path fill="#08143D" d="M 116.214844 195.167969 L 62.625 195.167969 C 61.285156 195.167969 60.191406 196.261719 60.191406 197.601562 C 60.191406 198.945312 61.285156 200.039062 62.625 200.039062 L 116.214844 200.039062 C 117.558594 200.039062 118.652344 198.945312 118.652344 197.601562 C 118.652344 196.261719 117.558594 195.167969 116.214844 195.167969"/><path fill="#08143D" d="M 101.601562 204.910156 L 62.625 204.910156 C 61.285156 204.910156 60.191406 206.007812 60.191406 207.347656 C 60.191406 208.6875 61.285156 209.785156 62.625 209.785156 L 101.601562 209.785156 C 102.941406 209.785156 104.035156 208.6875 104.035156 207.347656 C 104.035156 206.007812 102.941406 204.910156 101.601562 204.910156"/><path fill="#08143D" d="M 116.214844 204.910156 L 111.34375 204.910156 C 110.003906 204.910156 108.910156 206.007812 108.910156 207.347656 C 108.910156 208.6875 110.003906 209.785156 111.34375 209.785156 L 116.214844 209.785156 C 117.558594 209.785156 118.652344 208.6875 118.652344 207.347656 C 118.652344 206.007812 117.558594 204.910156 116.214844 204.910156"/><g fill="#08143D"><g><g><path d="M 18.515625 -6.234375 C 18.515625 -5.734375 18.382812 -5.242188 18.125 -4.765625 C 17.863281 -4.316406 17.238281 -3.785156 16.25 -3.171875 C 15.269531 -2.566406 14.179688 -1.992188 12.984375 -1.453125 C 11.796875 -0.910156 10.644531 -0.445312 9.53125 -0.0625 C 8.425781 0.320312 7.609375 0.515625 7.078125 0.515625 C 6.703125 0.515625 6.265625 0.425781 5.765625 0.25 C 5.265625 0.0820312 4.757812 -0.128906 4.25 -0.390625 C 3.75 -0.660156 3.289062 -0.96875 2.875 -1.3125 C 2.46875 -1.65625 2.171875 -1.988281 1.984375 -2.3125 C 1.878906 -2.488281 1.78125 -2.851562 1.6875 -3.40625 C 1.59375 -3.96875 1.507812 -4.617188 1.4375 -5.359375 C 1.375 -6.109375 1.316406 -6.898438 1.265625 -7.734375 C 1.210938 -8.566406 1.164062 -9.359375 1.125 -10.109375 C 1.09375 -10.867188 1.066406 -11.539062 1.046875 -12.125 C 1.035156 -12.707031 1.03125 -13.128906 1.03125 -13.390625 C 1.03125 -14.367188 1.0625 -15.492188 1.125 -16.765625 C 1.195312 -18.046875 1.320312 -19.328125 1.5 -20.609375 C 1.6875 -21.890625 1.957031 -23.117188 2.3125 -24.296875 C 2.675781 -25.484375 3.164062 -26.488281 3.78125 -27.3125 C 3.957031 -27.550781 4.320312 -27.800781 4.875 -28.0625 C 5.4375 -28.320312 6.09375 -28.570312 6.84375 -28.8125 C 7.601562 -29.050781 8.421875 -29.273438 9.296875 -29.484375 C 10.171875 -29.703125 11.007812 -29.882812 11.8125 -30.03125 C 12.625 -30.175781 13.363281 -30.296875 14.03125 -30.390625 C 14.695312 -30.484375 15.203125 -30.53125 15.546875 -30.53125 C 15.941406 -30.53125 16.316406 -30.441406 16.671875 -30.265625 C 17.035156 -30.097656 17.34375 -29.867188 17.59375 -29.578125 C 17.84375 -29.285156 18.039062 -28.957031 18.1875 -28.59375 C 18.332031 -28.238281 18.40625 -27.863281 18.40625 -27.46875 C 18.40625 -27.125 18.359375 -26.832031 18.265625 -26.59375 C 18.171875 -26.351562 18.03125 -26.085938 17.84375 -25.796875 C 17.582031 -25.453125 17.023438 -25.039062 16.171875 -24.5625 C 15.328125 -24.082031 14.40625 -23.609375 13.40625 -23.140625 C 12.414062 -22.679688 11.460938 -22.265625 10.546875 -21.890625 C 9.640625 -21.523438 9 -21.265625 8.625 -21.109375 C 8.519531 -20.492188 8.40625 -19.875 8.28125 -19.25 C 8.164062 -18.632812 8.082031 -18.007812 8.03125 -17.375 C 8.851562 -17.789062 9.78125 -18.1875 10.8125 -18.5625 C 11.84375 -18.9375 12.820312 -19.125 13.75 -19.125 C 15.632812 -19.125 16.578125 -18.195312 16.578125 -16.34375 C 16.578125 -15.882812 16.488281 -15.484375 16.3125 -15.140625 C 16.144531 -14.796875 15.921875 -14.488281 15.640625 -14.21875 C 15.359375 -13.957031 15.039062 -13.726562 14.6875 -13.53125 C 14.332031 -13.332031 13.984375 -13.140625 13.640625 -12.953125 C 12.785156 -12.503906 11.894531 -12.113281 10.96875 -11.78125 C 10.039062 -11.445312 9.113281 -11.125 8.1875 -10.8125 C 8.132812 -10.601562 8.082031 -10.367188 8.03125 -10.109375 C 7.976562 -9.859375 7.953125 -9.613281 7.953125 -9.375 C 7.953125 -9.007812 7.976562 -8.640625 8.03125 -8.265625 C 8.082031 -7.898438 8.132812 -7.53125 8.1875 -7.15625 C 8.507812 -7.257812 9.019531 -7.429688 9.71875 -7.671875 C 10.414062 -7.910156 11.148438 -8.148438 11.921875 -8.390625 C 12.691406 -8.628906 13.429688 -8.832031 14.140625 -9 C 14.859375 -9.175781 15.390625 -9.265625 15.734375 -9.265625 C 16.140625 -9.265625 16.515625 -9.175781 16.859375 -9 C 17.203125 -8.832031 17.488281 -8.609375 17.71875 -8.328125 C 17.957031 -8.046875 18.148438 -7.71875 18.296875 -7.34375 C 18.441406 -6.976562 18.515625 -6.609375 18.515625 -6.234375 Z M 18.515625 -6.234375" transform="translate(174.917 161.89)"/></g></g></g><g fill="#08143D"><g><g><path d="M 18.328125 -26.15625 C 18.328125 -24.21875 18.253906 -22.296875 18.109375 -20.390625 C 17.960938 -18.484375 17.890625 -16.5625 17.890625 -14.625 C 17.890625 -13.0625 17.9375 -11.507812 18.03125 -9.96875 C 18.125 -8.4375 18.171875 -6.890625 18.171875 -5.328125 C 18.171875 -4.898438 18.15625 -4.390625 18.125 -3.796875 C 18.09375 -3.203125 18.003906 -2.625 17.859375 -2.0625 C 17.722656 -1.507812 17.488281 -1.035156 17.15625 -0.640625 C 16.820312 -0.242188 16.347656 -0.046875 15.734375 -0.046875 C 14.941406 -0.046875 14.285156 -0.34375 13.765625 -0.9375 C 13.253906 -1.53125 12.929688 -2.195312 12.796875 -2.9375 C 12.296875 -1.988281 11.566406 -1.179688 10.609375 -0.515625 C 9.660156 0.148438 8.628906 0.484375 7.515625 0.484375 C 6.316406 0.484375 5.285156 0.0703125 4.421875 -0.75 C 3.566406 -1.570312 2.851562 -2.566406 2.28125 -3.734375 C 1.71875 -4.898438 1.296875 -6.117188 1.015625 -7.390625 C 0.734375 -8.660156 0.59375 -9.757812 0.59375 -10.6875 C 0.59375 -11.351562 0.628906 -12.109375 0.703125 -12.953125 C 0.785156 -13.804688 0.925781 -14.671875 1.125 -15.546875 C 1.332031 -16.421875 1.59375 -17.273438 1.90625 -18.109375 C 2.226562 -18.941406 2.632812 -19.6875 3.125 -20.34375 C 3.613281 -21.007812 4.195312 -21.539062 4.875 -21.9375 C 5.550781 -22.332031 6.320312 -22.53125 7.1875 -22.53125 C 8.144531 -22.53125 9.0625 -22.253906 9.9375 -21.703125 C 10.8125 -21.148438 11.472656 -20.460938 11.921875 -19.640625 L 12.28125 -25.953125 C 12.3125 -26.460938 12.351562 -27.050781 12.40625 -27.71875 C 12.457031 -28.394531 12.566406 -29.035156 12.734375 -29.640625 C 12.910156 -30.253906 13.179688 -30.773438 13.546875 -31.203125 C 13.921875 -31.628906 14.46875 -31.84375 15.1875 -31.84375 C 15.957031 -31.84375 16.550781 -31.65625 16.96875 -31.28125 C 17.394531 -30.90625 17.707031 -30.429688 17.90625 -29.859375 C 18.101562 -29.296875 18.222656 -28.679688 18.265625 -28.015625 C 18.304688 -27.359375 18.328125 -26.738281 18.328125 -26.15625 Z M 11.84375 -8.5 C 11.84375 -9.113281 11.828125 -9.710938 11.796875 -10.296875 C 11.773438 -10.878906 11.78125 -11.472656 11.8125 -12.078125 C 11.644531 -12.421875 11.457031 -12.796875 11.25 -13.203125 C 11.039062 -13.617188 10.78125 -14.003906 10.46875 -14.359375 C 10.164062 -14.722656 9.828125 -15.023438 9.453125 -15.265625 C 9.085938 -15.503906 8.691406 -15.625 8.265625 -15.625 C 7.785156 -15.625 7.398438 -15.476562 7.109375 -15.1875 C 6.816406 -14.894531 6.601562 -14.539062 6.46875 -14.125 C 6.34375 -13.71875 6.257812 -13.273438 6.21875 -12.796875 C 6.175781 -12.316406 6.15625 -11.90625 6.15625 -11.5625 C 6.15625 -11.25 6.179688 -10.78125 6.234375 -10.15625 C 6.285156 -9.53125 6.382812 -8.898438 6.53125 -8.265625 C 6.675781 -7.628906 6.878906 -7.070312 7.140625 -6.59375 C 7.410156 -6.125 7.773438 -5.890625 8.234375 -5.890625 C 8.578125 -5.890625 8.921875 -5.957031 9.265625 -6.09375 C 9.609375 -6.238281 9.929688 -6.425781 10.234375 -6.65625 C 10.535156 -6.882812 10.828125 -7.132812 11.109375 -7.40625 C 11.390625 -7.6875 11.632812 -7.945312 11.84375 -8.1875 Z M 11.84375 -8.5" transform="translate(194.027 161.89)"/></g></g></g><g fill="#08143D"><g><g><path d="M 18.609375 -11.375 C 18.609375 -9.914062 18.460938 -8.46875 18.171875 -7.03125 C 17.878906 -5.601562 17.382812 -4.328125 16.6875 -3.203125 C 16 -2.078125 15.078125 -1.164062 13.921875 -0.46875 C 12.773438 0.21875 11.34375 0.5625 9.625 0.5625 C 7.925781 0.5625 6.503906 0.222656 5.359375 -0.453125 C 4.222656 -1.128906 3.316406 -2.023438 2.640625 -3.140625 C 1.960938 -4.253906 1.484375 -5.507812 1.203125 -6.90625 C 0.929688 -8.3125 0.796875 -9.742188 0.796875 -11.203125 C 0.796875 -12.796875 0.976562 -14.375 1.34375 -15.9375 C 1.425781 -16.363281 1.578125 -16.953125 1.796875 -17.703125 C 2.023438 -18.460938 2.316406 -19.207031 2.671875 -19.9375 C 3.035156 -20.664062 3.445312 -21.296875 3.90625 -21.828125 C 4.375 -22.359375 4.890625 -22.625 5.453125 -22.625 C 5.972656 -22.625 6.390625 -22.476562 6.703125 -22.1875 C 7.023438 -21.894531 7.28125 -21.53125 7.46875 -21.09375 C 7.65625 -20.65625 7.773438 -20.1875 7.828125 -19.6875 C 7.878906 -19.195312 7.90625 -18.753906 7.90625 -18.359375 C 7.90625 -17.753906 7.859375 -17.160156 7.765625 -16.578125 C 7.671875 -15.992188 7.570312 -15.410156 7.46875 -14.828125 C 7.363281 -14.035156 7.265625 -13.238281 7.171875 -12.4375 C 7.078125 -11.644531 7.03125 -10.851562 7.03125 -10.0625 C 7.03125 -9.65625 7.050781 -9.207031 7.09375 -8.71875 C 7.132812 -8.226562 7.234375 -7.757812 7.390625 -7.3125 C 7.546875 -6.863281 7.769531 -6.484375 8.0625 -6.171875 C 8.351562 -5.867188 8.765625 -5.71875 9.296875 -5.71875 C 9.984375 -5.71875 10.53125 -5.90625 10.9375 -6.28125 C 11.351562 -6.65625 11.660156 -7.117188 11.859375 -7.671875 C 12.054688 -8.222656 12.179688 -8.816406 12.234375 -9.453125 C 12.296875 -10.097656 12.328125 -10.679688 12.328125 -11.203125 C 12.328125 -12.367188 12.242188 -13.515625 12.078125 -14.640625 C 11.921875 -15.773438 11.773438 -16.921875 11.640625 -18.078125 C 11.617188 -18.210938 11.609375 -18.398438 11.609375 -18.640625 C 11.609375 -19.035156 11.671875 -19.429688 11.796875 -19.828125 C 11.929688 -20.234375 12.117188 -20.59375 12.359375 -20.90625 C 12.597656 -21.226562 12.890625 -21.488281 13.234375 -21.6875 C 13.578125 -21.882812 13.960938 -21.984375 14.390625 -21.984375 C 14.972656 -21.984375 15.488281 -21.773438 15.9375 -21.359375 C 16.382812 -20.953125 16.757812 -20.421875 17.0625 -19.765625 C 17.375 -19.117188 17.628906 -18.390625 17.828125 -17.578125 C 18.023438 -16.773438 18.179688 -15.984375 18.296875 -15.203125 C 18.421875 -14.421875 18.503906 -13.6875 18.546875 -13 C 18.585938 -12.3125 18.609375 -11.769531 18.609375 -11.375 Z M 18.609375 -11.375" transform="translate(213.773 161.89)"/></g></g></g><g fill="#DE413A"><g><g><path d="M 18.765625 -20.234375 C 18.765625 -19.734375 18.703125 -19.203125 18.578125 -18.640625 C 18.460938 -18.085938 18.269531 -17.570312 18 -17.09375 C 17.738281 -16.613281 17.394531 -16.210938 16.96875 -15.890625 C 16.550781 -15.578125 16.035156 -15.421875 15.421875 -15.421875 C 14.492188 -15.421875 13.804688 -15.585938 13.359375 -15.921875 C 12.910156 -16.253906 12.59375 -16.671875 12.40625 -17.171875 C 12.21875 -17.671875 12.113281 -18.207031 12.09375 -18.78125 C 12.082031 -19.351562 12.0625 -19.890625 12.03125 -20.390625 C 12.007812 -20.890625 11.925781 -21.304688 11.78125 -21.640625 C 11.632812 -21.972656 11.320312 -22.140625 10.84375 -22.140625 C 10.320312 -22.140625 9.859375 -21.945312 9.453125 -21.5625 C 9.054688 -21.175781 8.710938 -20.675781 8.421875 -20.0625 C 8.128906 -19.457031 7.882812 -18.769531 7.6875 -18 C 7.488281 -17.238281 7.328125 -16.476562 7.203125 -15.71875 C 7.085938 -14.96875 7.003906 -14.253906 6.953125 -13.578125 C 6.898438 -12.898438 6.875 -12.347656 6.875 -11.921875 C 6.875 -11.367188 6.894531 -10.707031 6.9375 -9.9375 C 6.976562 -9.164062 7.101562 -8.425781 7.3125 -7.71875 C 7.519531 -7.019531 7.835938 -6.425781 8.265625 -5.9375 C 8.691406 -5.445312 9.300781 -5.203125 10.09375 -5.203125 C 10.625 -5.203125 11.140625 -5.269531 11.640625 -5.40625 C 12.148438 -5.539062 12.65625 -5.691406 13.15625 -5.859375 C 13.65625 -6.035156 14.164062 -6.1875 14.6875 -6.3125 C 15.207031 -6.445312 15.726562 -6.515625 16.25 -6.515625 C 16.863281 -6.515625 17.367188 -6.269531 17.765625 -5.78125 C 18.160156 -5.289062 18.359375 -4.742188 18.359375 -4.140625 C 18.359375 -3.285156 18.09375 -2.492188 17.5625 -1.765625 C 17.039062 -1.035156 16.382812 -0.394531 15.59375 0.15625 C 14.8125 0.71875 13.960938 1.15625 13.046875 1.46875 C 12.140625 1.789062 11.316406 1.953125 10.578125 1.953125 C 8.671875 1.953125 7.050781 1.519531 5.71875 0.65625 C 4.394531 -0.207031 3.320312 -1.320312 2.5 -2.6875 C 1.675781 -4.050781 1.085938 -5.570312 0.734375 -7.25 C 0.378906 -8.9375 0.203125 -10.613281 0.203125 -12.28125 C 0.203125 -13.394531 0.304688 -14.613281 0.515625 -15.9375 C 0.722656 -17.257812 1.039062 -18.585938 1.46875 -19.921875 C 1.894531 -21.265625 2.429688 -22.554688 3.078125 -23.796875 C 3.722656 -25.046875 4.484375 -26.148438 5.359375 -27.109375 C 6.234375 -28.066406 7.222656 -28.832031 8.328125 -29.40625 C 9.429688 -29.988281 10.644531 -30.28125 11.96875 -30.28125 C 13.257812 -30.28125 14.34375 -29.957031 15.21875 -29.3125 C 16.09375 -28.664062 16.796875 -27.84375 17.328125 -26.84375 C 17.859375 -25.851562 18.226562 -24.769531 18.4375 -23.59375 C 18.65625 -22.414062 18.765625 -21.296875 18.765625 -20.234375 Z M 18.765625 -20.234375" transform="translate(233.582 161.89)"/></g></g></g><g fill="#DE413A"><g><g><path d="M 18.078125 -5.609375 C 18.078125 -5.128906 18.054688 -4.503906 18.015625 -3.734375 C 17.984375 -2.960938 17.875 -2.210938 17.6875 -1.484375 C 17.5 -0.753906 17.207031 -0.128906 16.8125 0.390625 C 16.414062 0.921875 15.859375 1.1875 15.140625 1.1875 C 14.160156 1.1875 13.40625 0.867188 12.875 0.234375 C 12.34375 -0.398438 12.09375 -1.191406 12.125 -2.140625 C 11.269531 -1.398438 10.304688 -0.816406 9.234375 -0.390625 C 8.160156 0.0234375 7.070312 0.234375 5.96875 0.234375 C 5.195312 0.234375 4.46875 0.0507812 3.78125 -0.3125 C 3.09375 -0.6875 2.484375 -1.164062 1.953125 -1.75 C 1.421875 -2.332031 0.992188 -2.988281 0.671875 -3.71875 C 0.359375 -4.445312 0.203125 -5.171875 0.203125 -5.890625 C 0.203125 -7.160156 0.59375 -8.269531 1.375 -9.21875 C 2.15625 -10.175781 3.113281 -10.992188 4.25 -11.671875 C 5.394531 -12.347656 6.609375 -12.882812 7.890625 -13.28125 C 9.171875 -13.675781 10.316406 -13.941406 11.328125 -14.078125 C 11.328125 -14.203125 11.332031 -14.316406 11.34375 -14.421875 C 11.363281 -14.535156 11.375 -14.65625 11.375 -14.78125 C 11.375 -15.601562 11.144531 -16.265625 10.6875 -16.765625 C 10.238281 -17.273438 9.601562 -17.53125 8.78125 -17.53125 C 8.125 -17.53125 7.554688 -17.414062 7.078125 -17.1875 C 6.597656 -16.96875 6.144531 -16.71875 5.71875 -16.4375 C 5.300781 -16.15625 4.878906 -15.898438 4.453125 -15.671875 C 4.023438 -15.453125 3.546875 -15.34375 3.015625 -15.34375 C 2.429688 -15.34375 1.9375 -15.523438 1.53125 -15.890625 C 1.125 -16.265625 0.921875 -16.742188 0.921875 -17.328125 C 0.921875 -18.203125 1.175781 -18.992188 1.6875 -19.703125 C 2.207031 -20.421875 2.859375 -21.023438 3.640625 -21.515625 C 4.421875 -22.015625 5.265625 -22.398438 6.171875 -22.671875 C 7.085938 -22.953125 7.929688 -23.09375 8.703125 -23.09375 C 9.421875 -23.09375 10.132812 -23.003906 10.84375 -22.828125 C 11.5625 -22.660156 12.238281 -22.394531 12.875 -22.03125 C 13.507812 -21.675781 14.085938 -21.238281 14.609375 -20.71875 C 15.128906 -20.207031 15.546875 -19.609375 15.859375 -18.921875 C 16.335938 -17.941406 16.722656 -16.898438 17.015625 -15.796875 C 17.304688 -14.703125 17.53125 -13.578125 17.6875 -12.421875 C 17.84375 -11.265625 17.945312 -10.109375 18 -8.953125 C 18.050781 -7.804688 18.078125 -6.691406 18.078125 -5.609375 Z M 11.71875 -6.875 L 11.609375 -9.578125 C 11.554688 -9.578125 11.503906 -9.582031 11.453125 -9.59375 C 11.398438 -9.613281 11.34375 -9.625 11.28125 -9.625 C 10.9375 -9.625 10.503906 -9.535156 9.984375 -9.359375 C 9.472656 -9.191406 8.976562 -8.953125 8.5 -8.640625 C 8.03125 -8.335938 7.628906 -8 7.296875 -7.625 C 6.960938 -7.257812 6.796875 -6.878906 6.796875 -6.484375 C 6.796875 -6.109375 6.925781 -5.851562 7.1875 -5.71875 C 7.457031 -5.59375 7.765625 -5.53125 8.109375 -5.53125 C 8.691406 -5.53125 9.3125 -5.679688 9.96875 -5.984375 C 10.632812 -6.285156 11.21875 -6.582031 11.71875 -6.875 Z M 11.71875 -6.875" transform="translate(252.732 161.89)"/></g></g></g><g fill="#DE413A"><g><g><path d="M 10.453125 1.4375 C 8.566406 1.4375 7.097656 1.1875 6.046875 0.6875 C 5.003906 0.195312 4.222656 -0.492188 3.703125 -1.390625 C 3.191406 -2.296875 2.882812 -3.382812 2.78125 -4.65625 C 2.675781 -5.925781 2.625 -7.34375 2.625 -8.90625 C 2.625 -10.144531 2.660156 -11.394531 2.734375 -12.65625 C 2.816406 -13.914062 2.9375 -15.257812 3.09375 -16.6875 C 2.726562 -16.6875 2.4375 -16.679688 2.21875 -16.671875 C 2.007812 -16.660156 1.835938 -16.65625 1.703125 -16.65625 C 0.859375 -16.65625 0.125 -16.835938 -0.5 -17.203125 C -1.125 -17.578125 -1.4375 -18.148438 -1.4375 -18.921875 C -1.4375 -19.398438 -1.253906 -19.820312 -0.890625 -20.1875 C -0.535156 -20.5625 -0.0820312 -20.878906 0.46875 -21.140625 C 1.03125 -21.410156 1.632812 -21.625 2.28125 -21.78125 C 2.9375 -21.9375 3.554688 -22.039062 4.140625 -22.09375 C 4.140625 -22.84375 4.191406 -23.664062 4.296875 -24.5625 C 4.398438 -25.46875 4.585938 -26.3125 4.859375 -27.09375 C 5.140625 -27.875 5.519531 -28.53125 6 -29.0625 C 6.476562 -29.59375 7.085938 -29.859375 7.828125 -29.859375 C 8.253906 -29.859375 8.628906 -29.726562 8.953125 -29.46875 C 9.285156 -29.21875 9.554688 -28.898438 9.765625 -28.515625 C 9.984375 -28.128906 10.144531 -27.695312 10.25 -27.21875 C 10.363281 -26.75 10.421875 -26.289062 10.421875 -25.84375 C 10.421875 -25.3125 10.378906 -24.765625 10.296875 -24.203125 C 10.210938 -23.648438 10.066406 -22.960938 9.859375 -22.140625 C 10.304688 -22.191406 10.609375 -22.222656 10.765625 -22.234375 C 10.929688 -22.253906 11.078125 -22.265625 11.203125 -22.265625 C 11.660156 -22.265625 12.132812 -22.222656 12.625 -22.140625 C 13.113281 -22.054688 13.5625 -21.921875 13.96875 -21.734375 C 14.382812 -21.554688 14.722656 -21.3125 14.984375 -21 C 15.253906 -20.695312 15.390625 -20.335938 15.390625 -19.921875 C 15.390625 -19.441406 15.195312 -19.015625 14.8125 -18.640625 C 14.425781 -18.265625 13.941406 -17.945312 13.359375 -17.6875 C 12.773438 -17.425781 12.148438 -17.222656 11.484375 -17.078125 C 10.828125 -16.929688 10.207031 -16.832031 9.625 -16.78125 C 9.457031 -15.6875 9.34375 -14.679688 9.28125 -13.765625 C 9.21875 -12.859375 9.144531 -11.941406 9.0625 -11.015625 C 9.007812 -10.554688 8.960938 -10.09375 8.921875 -9.625 C 8.878906 -9.164062 8.859375 -8.703125 8.859375 -8.234375 C 8.859375 -7.890625 8.867188 -7.484375 8.890625 -7.015625 C 8.921875 -6.546875 9.015625 -6.097656 9.171875 -5.671875 C 9.335938 -5.253906 9.59375 -4.894531 9.9375 -4.59375 C 10.28125 -4.289062 10.757812 -4.140625 11.375 -4.140625 C 11.738281 -4.140625 12.117188 -4.171875 12.515625 -4.234375 C 12.921875 -4.296875 13.320312 -4.328125 13.71875 -4.328125 C 14.40625 -4.328125 14.898438 -4.085938 15.203125 -3.609375 C 15.503906 -3.140625 15.65625 -2.53125 15.65625 -1.78125 C 15.65625 -1.226562 15.488281 -0.742188 15.15625 -0.328125 C 14.832031 0.078125 14.414062 0.40625 13.90625 0.65625 C 13.40625 0.90625 12.84375 1.097656 12.21875 1.234375 C 11.59375 1.367188 11.003906 1.4375 10.453125 1.4375 Z M 10.453125 1.4375" transform="translate(272.001 161.89)"/></g></g></g><g fill="#DE413A"><g><g><path d="M 18.078125 -5.609375 C 18.078125 -5.128906 18.054688 -4.503906 18.015625 -3.734375 C 17.984375 -2.960938 17.875 -2.210938 17.6875 -1.484375 C 17.5 -0.753906 17.207031 -0.128906 16.8125 0.390625 C 16.414062 0.921875 15.859375 1.1875 15.140625 1.1875 C 14.160156 1.1875 13.40625 0.867188 12.875 0.234375 C 12.34375 -0.398438 12.09375 -1.191406 12.125 -2.140625 C 11.269531 -1.398438 10.304688 -0.816406 9.234375 -0.390625 C 8.160156 0.0234375 7.070312 0.234375 5.96875 0.234375 C 5.195312 0.234375 4.46875 0.0507812 3.78125 -0.3125 C 3.09375 -0.6875 2.484375 -1.164062 1.953125 -1.75 C 1.421875 -2.332031 0.992188 -2.988281 0.671875 -3.71875 C 0.359375 -4.445312 0.203125 -5.171875 0.203125 -5.890625 C 0.203125 -7.160156 0.59375 -8.269531 1.375 -9.21875 C 2.15625 -10.175781 3.113281 -10.992188 4.25 -11.671875 C 5.394531 -12.347656 6.609375 -12.882812 7.890625 -13.28125 C 9.171875 -13.675781 10.316406 -13.941406 11.328125 -14.078125 C 11.328125 -14.203125 11.332031 -14.316406 11.34375 -14.421875 C 11.363281 -14.535156 11.375 -14.65625 11.375 -14.78125 C 11.375 -15.601562 11.144531 -16.265625 10.6875 -16.765625 C 10.238281 -17.273438 9.601562 -17.53125 8.78125 -17.53125 C 8.125 -17.53125 7.554688 -17.414062 7.078125 -17.1875 C 6.597656 -16.96875 6.144531 -16.71875 5.71875 -16.4375 C 5.300781 -16.15625 4.878906 -15.898438 4.453125 -15.671875 C 4.023438 -15.453125 3.546875 -15.34375 3.015625 -15.34375 C 2.429688 -15.34375 1.9375 -15.523438 1.53125 -15.890625 C 1.125 -16.265625 0.921875 -16.742188 0.921875 -17.328125 C 0.921875 -18.203125 1.175781 -18.992188 1.6875 -19.703125 C 2.207031 -20.421875 2.859375 -21.023438 3.640625 -21.515625 C 4.421875 -22.015625 5.265625 -22.398438 6.171875 -22.671875 C 7.085938 -22.953125 7.929688 -23.09375 8.703125 -23.09375 C 9.421875 -23.09375 10.132812 -23.003906 10.84375 -22.828125 C 11.5625 -22.660156 12.238281 -22.394531 12.875 -22.03125 C 13.507812 -21.675781 14.085938 -21.238281 14.609375 -20.71875 C 15.128906 -20.207031 15.546875 -19.609375 15.859375 -18.921875 C 16.335938 -17.941406 16.722656 -16.898438 17.015625 -15.796875 C 17.304688 -14.703125 17.53125 -13.578125 17.6875 -12.421875 C 17.84375 -11.265625 17.945312 -10.109375 18 -8.953125 C 18.050781 -7.804688 18.078125 -6.691406 18.078125 -5.609375 Z M 11.71875 -6.875 L 11.609375 -9.578125 C 11.554688 -9.578125 11.503906 -9.582031 11.453125 -9.59375 C 11.398438 -9.613281 11.34375 -9.625 11.28125 -9.625 C 10.9375 -9.625 10.503906 -9.535156 9.984375 -9.359375 C 9.472656 -9.191406 8.976562 -8.953125 8.5 -8.640625 C 8.03125 -8.335938 7.628906 -8 7.296875 -7.625 C 6.960938 -7.257812 6.796875 -6.878906 6.796875 -6.484375 C 6.796875 -6.109375 6.925781 -5.851562 7.1875 -5.71875 C 7.457031 -5.59375 7.765625 -5.53125 8.109375 -5.53125 C 8.691406 -5.53125 9.3125 -5.679688 9.96875 -5.984375 C 10.632812 -6.285156 11.21875 -6.582031 11.71875 -6.875 Z M 11.71875 -6.875" transform="translate(287.257 161.89)"/></g></g></g><g fill="#DE413A"><g><g><path d="M 8.625 -24.09375 C 8.625 -22.65625 8.5625 -21.210938 8.4375 -19.765625 C 8.320312 -18.328125 8.265625 -16.878906 8.265625 -15.421875 C 8.265625 -13.535156 8.320312 -11.648438 8.4375 -9.765625 C 8.5625 -7.890625 8.625 -6 8.625 -4.09375 C 8.625 -3.613281 8.597656 -3.078125 8.546875 -2.484375 C 8.492188 -1.890625 8.367188 -1.335938 8.171875 -0.828125 C 7.972656 -0.328125 7.671875 0.09375 7.265625 0.4375 C 6.867188 0.78125 6.34375 0.953125 5.6875 0.953125 C 5.050781 0.953125 4.5 0.640625 4.03125 0.015625 C 3.570312 -0.609375 3.1875 -1.398438 2.875 -2.359375 C 2.570312 -3.328125 2.320312 -4.40625 2.125 -5.59375 C 1.925781 -6.789062 1.78125 -7.953125 1.6875 -9.078125 C 1.59375 -10.203125 1.523438 -11.234375 1.484375 -12.171875 C 1.453125 -13.117188 1.4375 -13.816406 1.4375 -14.265625 C 1.4375 -14.773438 1.453125 -15.503906 1.484375 -16.453125 C 1.523438 -17.410156 1.613281 -18.441406 1.75 -19.546875 C 1.882812 -20.660156 2.0625 -21.796875 2.28125 -22.953125 C 2.507812 -24.109375 2.804688 -25.15625 3.171875 -26.09375 C 3.546875 -27.03125 3.988281 -27.796875 4.5 -28.390625 C 5.019531 -28.992188 5.640625 -29.296875 6.359375 -29.296875 C 6.941406 -29.296875 7.382812 -29.101562 7.6875 -28.71875 C 8 -28.332031 8.21875 -27.867188 8.34375 -27.328125 C 8.476562 -26.785156 8.554688 -26.210938 8.578125 -25.609375 C 8.609375 -25.015625 8.625 -24.507812 8.625 -24.09375 Z M 8.625 -24.09375" transform="translate(306.526 161.89)"/></g></g></g><g fill="#DE413A"><g><g><path d="M 9.8125 11.5625 C 9.175781 11.5625 8.453125 11.460938 7.640625 11.265625 C 6.835938 11.066406 6.078125 10.78125 5.359375 10.40625 C 4.648438 10.039062 4.050781 9.59375 3.5625 9.0625 C 3.070312 8.53125 2.828125 7.921875 2.828125 7.234375 C 2.828125 6.972656 2.890625 6.707031 3.015625 6.4375 C 3.148438 6.175781 3.328125 5.945312 3.546875 5.75 C 3.773438 5.550781 4.019531 5.390625 4.28125 5.265625 C 4.550781 5.148438 4.832031 5.09375 5.125 5.09375 C 5.445312 5.09375 5.757812 5.132812 6.0625 5.21875 C 6.363281 5.3125 6.675781 5.425781 7 5.5625 C 7.34375 5.695312 7.675781 5.816406 8 5.921875 C 8.332031 6.023438 8.6875 6.078125 9.0625 6.078125 C 9.726562 6.078125 10.304688 5.851562 10.796875 5.40625 C 11.285156 4.957031 11.703125 4.367188 12.046875 3.640625 C 12.390625 2.910156 12.664062 2.097656 12.875 1.203125 C 13.09375 0.316406 13.257812 -0.5625 13.375 -1.4375 C 13.488281 -2.3125 13.570312 -3.128906 13.625 -3.890625 C 13.6875 -4.660156 13.726562 -5.285156 13.75 -5.765625 C 12.820312 -4.359375 11.898438 -3.273438 10.984375 -2.515625 C 10.078125 -1.765625 8.957031 -1.390625 7.625 -1.390625 C 6.625 -1.390625 5.742188 -1.597656 4.984375 -2.015625 C 4.234375 -2.441406 3.59375 -3 3.0625 -3.6875 C 2.53125 -4.382812 2.09375 -5.175781 1.75 -6.0625 C 1.40625 -6.945312 1.144531 -7.863281 0.96875 -8.8125 C 0.800781 -9.769531 0.691406 -10.707031 0.640625 -11.625 C 0.585938 -12.539062 0.585938 -13.382812 0.640625 -14.15625 C 0.660156 -14.738281 0.726562 -15.5 0.84375 -16.4375 C 0.96875 -17.375 1.160156 -18.289062 1.421875 -19.1875 C 1.691406 -20.09375 2.066406 -20.859375 2.546875 -21.484375 C 3.023438 -22.109375 3.644531 -22.394531 4.40625 -22.34375 C 4.914062 -22.3125 5.328125 -22.085938 5.640625 -21.671875 C 5.960938 -21.265625 6.222656 -20.753906 6.421875 -20.140625 C 6.617188 -19.535156 6.765625 -18.867188 6.859375 -18.140625 C 6.953125 -17.410156 7.007812 -16.6875 7.03125 -15.96875 C 7.0625 -15.257812 7.066406 -14.609375 7.046875 -14.015625 C 7.035156 -13.421875 7.03125 -12.960938 7.03125 -12.640625 C 7.03125 -12.191406 7.039062 -11.738281 7.0625 -11.28125 C 7.09375 -10.832031 7.1875 -10.429688 7.34375 -10.078125 C 7.507812 -9.722656 7.753906 -9.4375 8.078125 -9.21875 C 8.410156 -9.007812 8.882812 -8.90625 9.5 -8.90625 C 10.1875 -8.90625 10.734375 -9.078125 11.140625 -9.421875 C 11.554688 -9.765625 11.863281 -10.191406 12.0625 -10.703125 C 12.257812 -11.222656 12.382812 -11.78125 12.4375 -12.375 C 12.488281 -12.976562 12.515625 -13.546875 12.515625 -14.078125 C 12.515625 -14.441406 12.515625 -14.890625 12.515625 -15.421875 C 12.515625 -15.953125 12.519531 -16.507812 12.53125 -17.09375 C 12.550781 -17.675781 12.609375 -18.25 12.703125 -18.8125 C 12.796875 -19.382812 12.941406 -19.898438 13.140625 -20.359375 C 13.335938 -20.828125 13.597656 -21.207031 13.921875 -21.5 C 14.253906 -21.789062 14.6875 -21.9375 15.21875 -21.9375 C 15.882812 -21.9375 16.457031 -21.675781 16.9375 -21.15625 C 17.414062 -20.644531 17.816406 -19.972656 18.140625 -19.140625 C 18.472656 -18.304688 18.738281 -17.382812 18.9375 -16.375 C 19.132812 -15.363281 19.285156 -14.363281 19.390625 -13.375 C 19.503906 -12.382812 19.578125 -11.46875 19.609375 -10.625 C 19.648438 -9.789062 19.671875 -9.140625 19.671875 -8.671875 C 19.671875 -7.554688 19.628906 -6.289062 19.546875 -4.875 C 19.472656 -3.457031 19.320312 -2 19.09375 -0.5 C 18.875 1 18.535156 2.46875 18.078125 3.90625 C 17.628906 5.351562 17.039062 6.644531 16.3125 7.78125 C 15.582031 8.925781 14.6875 9.84375 13.625 10.53125 C 12.570312 11.21875 11.300781 11.5625 9.8125 11.5625 Z M 9.8125 11.5625" transform="translate(316.975 161.89)"/></g></g></g><g fill="#DE413A"><g><g><path d="M 12.84375 -21.859375 C 12.84375 -21.085938 12.582031 -20.515625 12.0625 -20.140625 C 11.539062 -19.773438 10.960938 -19.425781 10.328125 -19.09375 C 9.691406 -18.769531 9.113281 -18.378906 8.59375 -17.921875 C 8.082031 -17.472656 7.828125 -16.800781 7.828125 -15.90625 C 7.828125 -15.425781 7.9375 -15.015625 8.15625 -14.671875 C 8.382812 -14.328125 8.664062 -14.015625 9 -13.734375 C 9.332031 -13.453125 9.695312 -13.164062 10.09375 -12.875 C 10.488281 -12.582031 10.851562 -12.25 11.1875 -11.875 C 11.519531 -11.507812 11.796875 -11.0625 12.015625 -10.53125 C 12.242188 -10 12.359375 -9.347656 12.359375 -8.578125 C 12.359375 -7.472656 12.070312 -6.382812 11.5 -5.3125 C 10.9375 -4.238281 10.207031 -3.28125 9.3125 -2.4375 C 8.425781 -1.601562 7.425781 -0.9375 6.3125 -0.4375 C 5.207031 0.0625 4.109375 0.3125 3.015625 0.3125 C 2.566406 0.3125 2.117188 0.28125 1.671875 0.21875 C 1.222656 0.15625 0.816406 0.03125 0.453125 -0.15625 C 0.0976562 -0.34375 -0.195312 -0.601562 -0.4375 -0.9375 C -0.675781 -1.269531 -0.796875 -1.695312 -0.796875 -2.21875 C -0.796875 -2.96875 -0.648438 -3.546875 -0.359375 -3.953125 C -0.0664062 -4.367188 0.300781 -4.691406 0.75 -4.921875 C 1.207031 -5.160156 1.691406 -5.347656 2.203125 -5.484375 C 2.722656 -5.617188 3.207031 -5.785156 3.65625 -5.984375 C 4.101562 -6.179688 4.472656 -6.4375 4.765625 -6.75 C 5.054688 -7.070312 5.203125 -7.523438 5.203125 -8.109375 C 5.203125 -8.660156 4.984375 -9.234375 4.546875 -9.828125 C 4.109375 -10.429688 3.625 -11.070312 3.09375 -11.75 C 2.570312 -12.425781 2.09375 -13.144531 1.65625 -13.90625 C 1.21875 -14.675781 1 -15.523438 1 -16.453125 C 1 -17.597656 1.226562 -18.648438 1.6875 -19.609375 C 2.15625 -20.578125 2.78125 -21.421875 3.5625 -22.140625 C 4.34375 -22.859375 5.234375 -23.421875 6.234375 -23.828125 C 7.242188 -24.242188 8.304688 -24.453125 9.421875 -24.453125 C 9.847656 -24.453125 10.265625 -24.410156 10.671875 -24.328125 C 11.078125 -24.242188 11.441406 -24.101562 11.765625 -23.90625 C 12.085938 -23.707031 12.347656 -23.441406 12.546875 -23.109375 C 12.742188 -22.785156 12.84375 -22.367188 12.84375 -21.859375 Z M 12.84375 -21.859375" transform="translate(338.032 161.89)"/></g></g></g><g fill="#DE413A"><g><g><path d="M 10.453125 1.4375 C 8.566406 1.4375 7.097656 1.1875 6.046875 0.6875 C 5.003906 0.195312 4.222656 -0.492188 3.703125 -1.390625 C 3.191406 -2.296875 2.882812 -3.382812 2.78125 -4.65625 C 2.675781 -5.925781 2.625 -7.34375 2.625 -8.90625 C 2.625 -10.144531 2.660156 -11.394531 2.734375 -12.65625 C 2.816406 -13.914062 2.9375 -15.257812 3.09375 -16.6875 C 2.726562 -16.6875 2.4375 -16.679688 2.21875 -16.671875 C 2.007812 -16.660156 1.835938 -16.65625 1.703125 -16.65625 C 0.859375 -16.65625 0.125 -16.835938 -0.5 -17.203125 C -1.125 -17.578125 -1.4375 -18.148438 -1.4375 -18.921875 C -1.4375 -19.398438 -1.253906 -19.820312 -0.890625 -20.1875 C -0.535156 -20.5625 -0.0820312 -20.878906 0.46875 -21.140625 C 1.03125 -21.410156 1.632812 -21.625 2.28125 -21.78125 C 2.9375 -21.9375 3.554688 -22.039062 4.140625 -22.09375 C 4.140625 -22.84375 4.191406 -23.664062 4.296875 -24.5625 C 4.398438 -25.46875 4.585938 -26.3125 4.859375 -27.09375 C 5.140625 -27.875 5.519531 -28.53125 6 -29.0625 C 6.476562 -29.59375 7.085938 -29.859375 7.828125 -29.859375 C 8.253906 -29.859375 8.628906 -29.726562 8.953125 -29.46875 C 9.285156 -29.21875 9.554688 -28.898438 9.765625 -28.515625 C 9.984375 -28.128906 10.144531 -27.695312 10.25 -27.21875 C 10.363281 -26.75 10.421875 -26.289062 10.421875 -25.84375 C 10.421875 -25.3125 10.378906 -24.765625 10.296875 -24.203125 C 10.210938 -23.648438 10.066406 -22.960938 9.859375 -22.140625 C 10.304688 -22.191406 10.609375 -22.222656 10.765625 -22.234375 C 10.929688 -22.253906 11.078125 -22.265625 11.203125 -22.265625 C 11.660156 -22.265625 12.132812 -22.222656 12.625 -22.140625 C 13.113281 -22.054688 13.5625 -21.921875 13.96875 -21.734375 C 14.382812 -21.554688 14.722656 -21.3125 14.984375 -21 C 15.253906 -20.695312 15.390625 -20.335938 15.390625 -19.921875 C 15.390625 -19.441406 15.195312 -19.015625 14.8125 -18.640625 C 14.425781 -18.265625 13.941406 -17.945312 13.359375 -17.6875 C 12.773438 -17.425781 12.148438 -17.222656 11.484375 -17.078125 C 10.828125 -16.929688 10.207031 -16.832031 9.625 -16.78125 C 9.457031 -15.6875 9.34375 -14.679688 9.28125 -13.765625 C 9.21875 -12.859375 9.144531 -11.941406 9.0625 -11.015625 C 9.007812 -10.554688 8.960938 -10.09375 8.921875 -9.625 C 8.878906 -9.164062 8.859375 -8.703125 8.859375 -8.234375 C 8.859375 -7.890625 8.867188 -7.484375 8.890625 -7.015625 C 8.921875 -6.546875 9.015625 -6.097656 9.171875 -5.671875 C 9.335938 -5.253906 9.59375 -4.894531 9.9375 -4.59375 C 10.28125 -4.289062 10.757812 -4.140625 11.375 -4.140625 C 11.738281 -4.140625 12.117188 -4.171875 12.515625 -4.234375 C 12.921875 -4.296875 13.320312 -4.328125 13.71875 -4.328125 C 14.40625 -4.328125 14.898438 -4.085938 15.203125 -3.609375 C 15.503906 -3.140625 15.65625 -2.53125 15.65625 -1.78125 C 15.65625 -1.226562 15.488281 -0.742188 15.15625 -0.328125 C 14.832031 0.078125 14.414062 0.40625 13.90625 0.65625 C 13.40625 0.90625 12.84375 1.097656 12.21875 1.234375 C 11.59375 1.367188 11.003906 1.4375 10.453125 1.4375 Z M 10.453125 1.4375" transform="translate(351.262 161.89)"/></g></g></g><g fill="#08143D"><g><g><path d="M 6.546875 -11.265625 L 11.09375 0 L 8.328125 0 L 7.5 -2.25 L 3.203125 -2.25 L 2.375 0 L -0.375 0 L 4.171875 -11.265625 Z M 6.625 -4.5 L 5.359375 -7.78125 L 5.34375 -7.78125 L 4.078125 -4.5 Z M 6.625 -4.5" transform="translate(180.976 189.2)"/></g></g></g><g fill="#08143D"><g><g><path d="M 5.71875 -11.265625 L 5.71875 -3.1875 C 5.71875 -2.082031 5.414062 -1.238281 4.8125 -0.65625 C 4.207031 -0.0820312 3.34375 0.203125 2.21875 0.203125 C 1.914062 0.203125 1.617188 0.164062 1.328125 0.09375 C 1.035156 0.0195312 0.785156 -0.0664062 0.578125 -0.171875 C 0.378906 -0.273438 0.203125 -0.378906 0.046875 -0.484375 C -0.109375 -0.597656 -0.222656 -0.691406 -0.296875 -0.765625 L -0.421875 -0.875 L 0.390625 -3.015625 C 0.929688 -2.503906 1.421875 -2.25 1.859375 -2.25 C 2.242188 -2.25 2.554688 -2.378906 2.796875 -2.640625 C 3.035156 -2.898438 3.15625 -3.300781 3.15625 -3.84375 L 3.15625 -11.265625 Z M 5.71875 -11.265625" transform="translate(194.032 189.2)"/></g></g></g><g fill="#08143D"><g><g><path d="M 1.484375 -0.828125 C 0.703125 -1.523438 0.3125 -2.414062 0.3125 -3.5 C 0.3125 -4.582031 0.71875 -5.46875 1.53125 -6.15625 C 2.34375 -6.851562 3.34375 -7.203125 4.53125 -7.203125 C 5.707031 -7.203125 6.695312 -6.851562 7.5 -6.15625 C 8.3125 -5.457031 8.71875 -4.570312 8.71875 -3.5 C 8.71875 -2.425781 8.320312 -1.539062 7.53125 -0.84375 C 6.738281 -0.144531 5.738281 0.203125 4.53125 0.203125 C 3.28125 0.203125 2.265625 -0.140625 1.484375 -0.828125 Z M 3.34375 -4.671875 C 3.03125 -4.367188 2.875 -3.972656 2.875 -3.484375 C 2.875 -3.003906 3.023438 -2.613281 3.328125 -2.3125 C 3.628906 -2.007812 4.023438 -1.859375 4.515625 -1.859375 C 4.992188 -1.859375 5.382812 -2.007812 5.6875 -2.3125 C 5.988281 -2.625 6.140625 -3.019531 6.140625 -3.5 C 6.140625 -3.976562 5.984375 -4.367188 5.671875 -4.671875 C 5.359375 -4.984375 4.972656 -5.140625 4.515625 -5.140625 C 4.054688 -5.140625 3.664062 -4.984375 3.34375 -4.671875 Z M 3.34375 -4.671875" transform="translate(199.748 189.2)"/></g></g></g><g fill="#08143D"><g><g><path d="M 3.09375 -7 L 3.09375 -3.671875 C 3.09375 -2.984375 3.195312 -2.492188 3.40625 -2.203125 C 3.625 -1.910156 3.984375 -1.765625 4.484375 -1.765625 C 4.984375 -1.765625 5.335938 -1.910156 5.546875 -2.203125 C 5.753906 -2.492188 5.859375 -2.984375 5.859375 -3.671875 L 5.859375 -7 L 8.28125 -7 L 8.28125 -3.09375 C 8.28125 -1.925781 7.972656 -1.082031 7.359375 -0.5625 C 6.753906 -0.0507812 5.789062 0.203125 4.46875 0.203125 C 3.15625 0.203125 2.195312 -0.0507812 1.59375 -0.5625 C 0.988281 -1.082031 0.6875 -1.925781 0.6875 -3.09375 L 0.6875 -7 Z M 3.09375 -7" transform="translate(208.084 189.2)"/></g></g></g><g fill="#08143D"><g><g><path d="M 0.8125 0 L 0.8125 -7 L 3.234375 -7 L 3.234375 -6 L 3.265625 -6 C 3.285156 -6.03125 3.3125 -6.070312 3.34375 -6.125 C 3.382812 -6.1875 3.472656 -6.285156 3.609375 -6.421875 C 3.753906 -6.554688 3.898438 -6.675781 4.046875 -6.78125 C 4.203125 -6.894531 4.40625 -6.992188 4.65625 -7.078125 C 4.90625 -7.160156 5.15625 -7.203125 5.40625 -7.203125 C 5.664062 -7.203125 5.921875 -7.164062 6.171875 -7.09375 C 6.429688 -7.019531 6.625 -6.945312 6.75 -6.875 L 6.9375 -6.78125 L 5.921875 -4.71875 C 5.617188 -4.976562 5.203125 -5.109375 4.671875 -5.109375 C 4.378906 -5.109375 4.128906 -5.039062 3.921875 -4.90625 C 3.710938 -4.78125 3.5625 -4.625 3.46875 -4.4375 C 3.382812 -4.257812 3.320312 -4.109375 3.28125 -3.984375 C 3.25 -3.859375 3.234375 -3.757812 3.234375 -3.6875 L 3.234375 0 Z M 0.8125 0" transform="translate(216.351 189.2)"/></g></g></g><g fill="#08143D"><g><g><path d="M 0.8125 0 L 0.8125 -7 L 3.234375 -7 L 3.234375 -6.265625 L 3.265625 -6.265625 C 3.890625 -6.890625 4.554688 -7.203125 5.265625 -7.203125 C 5.617188 -7.203125 5.960938 -7.15625 6.296875 -7.0625 C 6.640625 -6.976562 6.96875 -6.835938 7.28125 -6.640625 C 7.59375 -6.453125 7.847656 -6.179688 8.046875 -5.828125 C 8.242188 -5.484375 8.34375 -5.078125 8.34375 -4.609375 L 8.34375 0 L 5.921875 0 L 5.921875 -3.953125 C 5.921875 -4.316406 5.804688 -4.632812 5.578125 -4.90625 C 5.347656 -5.1875 5.046875 -5.328125 4.671875 -5.328125 C 4.304688 -5.328125 3.972656 -5.1875 3.671875 -4.90625 C 3.378906 -4.625 3.234375 -4.304688 3.234375 -3.953125 L 3.234375 0 Z M 0.8125 0" transform="translate(222.463 189.2)"/></g></g></g><g fill="#08143D"><g><g><path d="M 7.90625 -3.171875 L 2.828125 -3.171875 C 2.828125 -2.679688 2.984375 -2.316406 3.296875 -2.078125 C 3.617188 -1.835938 3.96875 -1.71875 4.34375 -1.71875 C 4.738281 -1.71875 5.046875 -1.769531 5.265625 -1.875 C 5.492188 -1.976562 5.753906 -2.1875 6.046875 -2.5 L 7.796875 -1.625 C 7.066406 -0.40625 5.859375 0.203125 4.171875 0.203125 C 3.109375 0.203125 2.195312 -0.15625 1.4375 -0.875 C 0.6875 -1.601562 0.3125 -2.476562 0.3125 -3.5 C 0.3125 -4.519531 0.6875 -5.390625 1.4375 -6.109375 C 2.195312 -6.835938 3.109375 -7.203125 4.171875 -7.203125 C 5.273438 -7.203125 6.175781 -6.878906 6.875 -6.234375 C 7.570312 -5.597656 7.921875 -4.6875 7.921875 -3.5 C 7.921875 -3.332031 7.914062 -3.222656 7.90625 -3.171875 Z M 2.890625 -4.5 L 5.5625 -4.5 C 5.5 -4.863281 5.351562 -5.144531 5.125 -5.34375 C 4.894531 -5.539062 4.597656 -5.640625 4.234375 -5.640625 C 3.828125 -5.640625 3.503906 -5.535156 3.265625 -5.328125 C 3.035156 -5.117188 2.910156 -4.84375 2.890625 -4.5 Z M 2.890625 -4.5" transform="translate(230.799 189.2)"/></g></g></g><g fill="#08143D"><g><g><path d="M 6.125 -7 L 8.921875 -7 L 3.40625 3.546875 L 0.625 3.546875 L 3.046875 -1.09375 L -0.265625 -7 L 2.515625 -7 L 4.46875 -3.40625 Z M 6.125 -7" transform="translate(238.343 189.2)"/></g></g></g><g fill="#08143D"><g><g><path d="M 1.234375 -7 L 1.234375 -9.609375 L 3.640625 -9.609375 L 3.640625 -7 L 5.125 -7 L 5.125 -5.15625 L 3.640625 -5.15625 L 3.640625 -2.9375 C 3.640625 -2.289062 3.820312 -1.96875 4.1875 -1.96875 C 4.28125 -1.96875 4.375 -1.984375 4.46875 -2.015625 C 4.570312 -2.054688 4.65625 -2.09375 4.71875 -2.125 L 4.796875 -2.1875 L 5.390625 -0.234375 C 4.867188 0.0546875 4.28125 0.203125 3.625 0.203125 C 3.164062 0.203125 2.769531 0.125 2.4375 -0.03125 C 2.113281 -0.1875 1.867188 -0.398438 1.703125 -0.671875 C 1.535156 -0.941406 1.414062 -1.222656 1.34375 -1.515625 C 1.269531 -1.816406 1.234375 -2.132812 1.234375 -2.46875 L 1.234375 -5.15625 L 0.21875 -5.15625 L 0.21875 -7 Z M 1.234375 -7" transform="translate(249.339 189.2)"/></g></g></g><g fill="#08143D"><g><g><path d="M 1.484375 -0.828125 C 0.703125 -1.523438 0.3125 -2.414062 0.3125 -3.5 C 0.3125 -4.582031 0.71875 -5.46875 1.53125 -6.15625 C 2.34375 -6.851562 3.34375 -7.203125 4.53125 -7.203125 C 5.707031 -7.203125 6.695312 -6.851562 7.5 -6.15625 C 8.3125 -5.457031 8.71875 -4.570312 8.71875 -3.5 C 8.71875 -2.425781 8.320312 -1.539062 7.53125 -0.84375 C 6.738281 -0.144531 5.738281 0.203125 4.53125 0.203125 C 3.28125 0.203125 2.265625 -0.140625 1.484375 -0.828125 Z M 3.34375 -4.671875 C 3.03125 -4.367188 2.875 -3.972656 2.875 -3.484375 C 2.875 -3.003906 3.023438 -2.613281 3.328125 -2.3125 C 3.628906 -2.007812 4.023438 -1.859375 4.515625 -1.859375 C 4.992188 -1.859375 5.382812 -2.007812 5.6875 -2.3125 C 5.988281 -2.625 6.140625 -3.019531 6.140625 -3.5 C 6.140625 -3.976562 5.984375 -4.367188 5.671875 -4.671875 C 5.359375 -4.984375 4.972656 -5.140625 4.515625 -5.140625 C 4.054688 -5.140625 3.664062 -4.984375 3.34375 -4.671875 Z M 3.34375 -4.671875" transform="translate(254.045 189.2)"/></g></g></g><g fill="#08143D"><g><g><path d="M 7.265625 -11.265625 L 7.265625 -9.015625 L 3.390625 -9.015625 L 3.390625 -6.78125 L 7.09375 -6.78125 L 7.09375 -4.515625 L 3.390625 -4.515625 L 3.390625 -2.25 L 7.265625 -2.25 L 7.265625 0 L 0.8125 0 L 0.8125 -11.265625 Z M 7.265625 -11.265625" transform="translate(265.423 189.2)"/></g></g></g><g fill="#08143D"><g><g><path d="M 8.9375 0 L 6.015625 0 L 4.46875 -1.984375 L 2.921875 0 L 0 0 L 2.984375 -3.65625 L 0.421875 -7 L 3.25 -7 L 4.46875 -5.375 L 5.6875 -7 L 8.5 -7 L 5.9375 -3.65625 Z M 8.9375 0" transform="translate(272.654 189.2)"/></g></g></g><g fill="#08143D"><g><g><path d="M 4.546875 -5.234375 C 4.085938 -5.234375 3.691406 -5.0625 3.359375 -4.71875 C 3.035156 -4.382812 2.875 -3.984375 2.875 -3.515625 C 2.875 -3.023438 3.035156 -2.613281 3.359375 -2.28125 C 3.691406 -1.945312 4.085938 -1.78125 4.546875 -1.78125 C 4.765625 -1.78125 4.972656 -1.804688 5.171875 -1.859375 C 5.367188 -1.910156 5.507812 -1.960938 5.59375 -2.015625 L 5.71875 -2.109375 L 6.546875 -0.421875 C 6.484375 -0.378906 6.394531 -0.320312 6.28125 -0.25 C 6.164062 -0.1875 5.90625 -0.0976562 5.5 0.015625 C 5.09375 0.140625 4.65625 0.203125 4.1875 0.203125 C 3.164062 0.203125 2.265625 -0.15625 1.484375 -0.875 C 0.703125 -1.601562 0.3125 -2.472656 0.3125 -3.484375 C 0.3125 -4.503906 0.703125 -5.378906 1.484375 -6.109375 C 2.265625 -6.835938 3.164062 -7.203125 4.1875 -7.203125 C 4.65625 -7.203125 5.082031 -7.144531 5.46875 -7.03125 C 5.863281 -6.925781 6.144531 -6.820312 6.3125 -6.71875 L 6.546875 -6.5625 L 5.71875 -4.90625 C 5.414062 -5.125 5.023438 -5.234375 4.546875 -5.234375 Z M 4.546875 -5.234375" transform="translate(280.894 189.2)"/></g></g></g><g fill="#08143D"><g><g><path d="M 7.90625 -3.171875 L 2.828125 -3.171875 C 2.828125 -2.679688 2.984375 -2.316406 3.296875 -2.078125 C 3.617188 -1.835938 3.96875 -1.71875 4.34375 -1.71875 C 4.738281 -1.71875 5.046875 -1.769531 5.265625 -1.875 C 5.492188 -1.976562 5.753906 -2.1875 6.046875 -2.5 L 7.796875 -1.625 C 7.066406 -0.40625 5.859375 0.203125 4.171875 0.203125 C 3.109375 0.203125 2.195312 -0.15625 1.4375 -0.875 C 0.6875 -1.601562 0.3125 -2.476562 0.3125 -3.5 C 0.3125 -4.519531 0.6875 -5.390625 1.4375 -6.109375 C 2.195312 -6.835938 3.109375 -7.203125 4.171875 -7.203125 C 5.273438 -7.203125 6.175781 -6.878906 6.875 -6.234375 C 7.570312 -5.597656 7.921875 -4.6875 7.921875 -3.5 C 7.921875 -3.332031 7.914062 -3.222656 7.90625 -3.171875 Z M 2.890625 -4.5 L 5.5625 -4.5 C 5.5 -4.863281 5.351562 -5.144531 5.125 -5.34375 C 4.894531 -5.539062 4.597656 -5.640625 4.234375 -5.640625 C 3.828125 -5.640625 3.503906 -5.535156 3.265625 -5.328125 C 3.035156 -5.117188 2.910156 -4.84375 2.890625 -4.5 Z M 2.890625 -4.5" transform="translate(286.91 189.2)"/></g></g></g><g fill="#08143D"><g><g><path d="M 0.8125 0 L 0.8125 -11.75 L 3.234375 -11.75 L 3.234375 0 Z M 0.8125 0" transform="translate(294.455 189.2)"/></g></g></g><g fill="#08143D"><g><g><path d="M 0.8125 0 L 0.8125 -11.75 L 3.234375 -11.75 L 3.234375 0 Z M 0.8125 0" transform="translate(297.824 189.2)"/></g></g></g><g fill="#08143D"><g><g><path d="M 7.90625 -3.171875 L 2.828125 -3.171875 C 2.828125 -2.679688 2.984375 -2.316406 3.296875 -2.078125 C 3.617188 -1.835938 3.96875 -1.71875 4.34375 -1.71875 C 4.738281 -1.71875 5.046875 -1.769531 5.265625 -1.875 C 5.492188 -1.976562 5.753906 -2.1875 6.046875 -2.5 L 7.796875 -1.625 C 7.066406 -0.40625 5.859375 0.203125 4.171875 0.203125 C 3.109375 0.203125 2.195312 -0.15625 1.4375 -0.875 C 0.6875 -1.601562 0.3125 -2.476562 0.3125 -3.5 C 0.3125 -4.519531 0.6875 -5.390625 1.4375 -6.109375 C 2.195312 -6.835938 3.109375 -7.203125 4.171875 -7.203125 C 5.273438 -7.203125 6.175781 -6.878906 6.875 -6.234375 C 7.570312 -5.597656 7.921875 -4.6875 7.921875 -3.5 C 7.921875 -3.332031 7.914062 -3.222656 7.90625 -3.171875 Z M 2.890625 -4.5 L 5.5625 -4.5 C 5.5 -4.863281 5.351562 -5.144531 5.125 -5.34375 C 4.894531 -5.539062 4.597656 -5.640625 4.234375 -5.640625 C 3.828125 -5.640625 3.503906 -5.535156 3.265625 -5.328125 C 3.035156 -5.117188 2.910156 -4.84375 2.890625 -4.5 Z M 2.890625 -4.5" transform="translate(301.193 189.2)"/></g></g></g><g fill="#08143D"><g><g><path d="M 0.8125 0 L 0.8125 -7 L 3.234375 -7 L 3.234375 -6.265625 L 3.265625 -6.265625 C 3.890625 -6.890625 4.554688 -7.203125 5.265625 -7.203125 C 5.617188 -7.203125 5.960938 -7.15625 6.296875 -7.0625 C 6.640625 -6.976562 6.96875 -6.835938 7.28125 -6.640625 C 7.59375 -6.453125 7.847656 -6.179688 8.046875 -5.828125 C 8.242188 -5.484375 8.34375 -5.078125 8.34375 -4.609375 L 8.34375 0 L 5.921875 0 L 5.921875 -3.953125 C 5.921875 -4.316406 5.804688 -4.632812 5.578125 -4.90625 C 5.347656 -5.1875 5.046875 -5.328125 4.671875 -5.328125 C 4.304688 -5.328125 3.972656 -5.1875 3.671875 -4.90625 C 3.378906 -4.625 3.234375 -4.304688 3.234375 -3.953125 L 3.234375 0 Z M 0.8125 0" transform="translate(308.738 189.2)"/></g></g></g><g fill="#08143D"><g><g><path d="M 4.546875 -5.234375 C 4.085938 -5.234375 3.691406 -5.0625 3.359375 -4.71875 C 3.035156 -4.382812 2.875 -3.984375 2.875 -3.515625 C 2.875 -3.023438 3.035156 -2.613281 3.359375 -2.28125 C 3.691406 -1.945312 4.085938 -1.78125 4.546875 -1.78125 C 4.765625 -1.78125 4.972656 -1.804688 5.171875 -1.859375 C 5.367188 -1.910156 5.507812 -1.960938 5.59375 -2.015625 L 5.71875 -2.109375 L 6.546875 -0.421875 C 6.484375 -0.378906 6.394531 -0.320312 6.28125 -0.25 C 6.164062 -0.1875 5.90625 -0.0976562 5.5 0.015625 C 5.09375 0.140625 4.65625 0.203125 4.1875 0.203125 C 3.164062 0.203125 2.265625 -0.15625 1.484375 -0.875 C 0.703125 -1.601562 0.3125 -2.472656 0.3125 -3.484375 C 0.3125 -4.503906 0.703125 -5.378906 1.484375 -6.109375 C 2.265625 -6.835938 3.164062 -7.203125 4.1875 -7.203125 C 4.65625 -7.203125 5.082031 -7.144531 5.46875 -7.03125 C 5.863281 -6.925781 6.144531 -6.820312 6.3125 -6.71875 L 6.546875 -6.5625 L 5.71875 -4.90625 C 5.414062 -5.125 5.023438 -5.234375 4.546875 -5.234375 Z M 4.546875 -5.234375" transform="translate(317.073 189.2)"/></g></g></g><g fill="#08143D"><g><g><path d="M 7.90625 -3.171875 L 2.828125 -3.171875 C 2.828125 -2.679688 2.984375 -2.316406 3.296875 -2.078125 C 3.617188 -1.835938 3.96875 -1.71875 4.34375 -1.71875 C 4.738281 -1.71875 5.046875 -1.769531 5.265625 -1.875 C 5.492188 -1.976562 5.753906 -2.1875 6.046875 -2.5 L 7.796875 -1.625 C 7.066406 -0.40625 5.859375 0.203125 4.171875 0.203125 C 3.109375 0.203125 2.195312 -0.15625 1.4375 -0.875 C 0.6875 -1.601562 0.3125 -2.476562 0.3125 -3.5 C 0.3125 -4.519531 0.6875 -5.390625 1.4375 -6.109375 C 2.195312 -6.835938 3.109375 -7.203125 4.171875 -7.203125 C 5.273438 -7.203125 6.175781 -6.878906 6.875 -6.234375 C 7.570312 -5.597656 7.921875 -4.6875 7.921875 -3.5 C 7.921875 -3.332031 7.914062 -3.222656 7.90625 -3.171875 Z M 2.890625 -4.5 L 5.5625 -4.5 C 5.5 -4.863281 5.351562 -5.144531 5.125 -5.34375 C 4.894531 -5.539062 4.597656 -5.640625 4.234375 -5.640625 C 3.828125 -5.640625 3.503906 -5.535156 3.265625 -5.328125 C 3.035156 -5.117188 2.910156 -4.84375 2.890625 -4.5 Z M 2.890625 -4.5" transform="translate(323.09 189.2)"/></g></g></g></svg>